<svg width="21" height="21" viewBox="0 0 21 21" fill="none" xmlns="http://www.w3.org/2000/svg">
<g id="Nav &#226;&#134;&#146; Ordered List &#226;&#134;&#146; Item &#226;&#134;&#146; Link &#226;&#134;&#146; SVG">
<g id="Group">
<g id="Group_2">
<path id="Vector" fill-rule="evenodd" clip-rule="evenodd" d="M6.33517 4.18054C5.53953 4.18054 4.77646 4.49661 4.21385 5.05922C3.65125 5.62183 3.33517 6.38489 3.33517 7.18054C3.33517 7.97619 3.65125 8.73925 4.21385 9.30186C4.77646 9.86447 5.53953 10.1805 6.33517 10.1805C7.13082 10.1805 7.89389 9.86447 8.4565 9.30186C9.0191 8.73925 9.33517 7.97619 9.33517 7.18054C9.33517 6.38489 9.0191 5.62183 8.4565 5.05922C7.89389 4.49661 7.13082 4.18054 6.33517 4.18054ZM4.83517 7.18054C4.83517 7.37752 4.87397 7.57258 4.94936 7.75457C5.02474 7.93656 5.13523 8.10191 5.27451 8.2412C5.4138 8.38049 5.57916 8.49098 5.76115 8.56636C5.94314 8.64174 6.13819 8.68054 6.33517 8.68054C6.53216 8.68054 6.72721 8.64174 6.9092 8.56636C7.09119 8.49098 7.25655 8.38049 7.39583 8.2412C7.53512 8.10191 7.64561 7.93656 7.72099 7.75457C7.79638 7.57258 7.83517 7.37752 7.83517 7.18054C7.83517 6.78272 7.67714 6.40119 7.39583 6.11988C7.11453 5.83858 6.733 5.68054 6.33517 5.68054C5.93735 5.68054 5.55582 5.83858 5.27451 6.11988C4.99321 6.40119 4.83517 6.78272 4.83517 7.18054ZM2.77517 12.2505C3.73517 11.7005 4.99517 11.4305 6.33517 11.4305C7.67517 11.4305 8.93517 11.7005 9.89517 12.2505C10.8752 12.8105 11.5852 13.7205 11.5852 14.9305C11.5852 15.6305 11.3052 16.2305 10.8052 16.6405C10.3252 17.0305 9.70517 17.1805 9.08517 17.1805H3.58517C2.97517 17.1805 2.34517 17.0305 1.86517 16.6405C1.36517 16.2405 1.08517 15.6405 1.08517 14.9305C1.08517 13.7205 1.79517 12.8105 2.77517 12.2505ZM3.52517 13.5505C2.87517 13.9205 2.58517 14.3905 2.58517 14.9305C2.58517 15.2305 2.68517 15.3705 2.80517 15.4705C2.94517 15.5805 3.20517 15.6805 3.58517 15.6805H9.08517C9.47517 15.6805 9.72517 15.5805 9.86517 15.4705C9.98517 15.3705 10.0852 15.2205 10.0852 14.9305C10.0852 14.3905 9.79517 13.9305 9.14517 13.5505C8.48518 13.1605 7.49517 12.9305 6.33517 12.9305C5.17517 12.9305 4.18517 13.1605 3.52517 13.5505ZM13.8352 4.18054C13.0395 4.18054 12.2765 4.49661 11.7139 5.05922C11.1512 5.62183 10.8352 6.38489 10.8352 7.18054C10.8352 7.97619 11.1512 8.73925 11.7139 9.30186C12.2765 9.86447 13.0395 10.1805 13.8352 10.1805C14.6308 10.1805 15.3939 9.86447 15.9565 9.30186C16.5191 8.73925 16.8352 7.97619 16.8352 7.18054C16.8352 6.38489 16.5191 5.62183 15.9565 5.05922C15.3939 4.49661 14.6308 4.18054 13.8352 4.18054ZM12.3352 7.18054C12.3352 7.57837 12.4932 7.9599 12.7745 8.2412C13.0558 8.52251 13.4374 8.68054 13.8352 8.68054C14.233 8.68054 14.6145 8.52251 14.8958 8.2412C15.1771 7.9599 15.3352 7.57837 15.3352 7.18054C15.3352 6.78272 15.1771 6.40119 14.8958 6.11988C14.6145 5.83858 14.233 5.68054 13.8352 5.68054C13.4374 5.68054 13.0558 5.83858 12.7745 6.11988C12.4932 6.40119 12.3352 6.78272 12.3352 7.18054Z" fill="#71AAEB"/>
</g>
<path id="Vector_2" d="M13.8352 12.9305C13.6052 12.9305 13.3852 12.9405 13.1552 12.9605C13.0537 12.9771 12.95 12.9725 12.8504 12.9473C12.7508 12.9221 12.6574 12.8766 12.5761 12.8138C12.4948 12.7509 12.4272 12.6721 12.3777 12.582C12.3281 12.492 12.2976 12.3928 12.2879 12.2905C12.2783 12.1881 12.2898 12.0849 12.3218 11.9873C12.3537 11.8896 12.4054 11.7995 12.4736 11.7226C12.5418 11.6457 12.625 11.5837 12.7182 11.5403C12.8114 11.497 12.9124 11.4732 13.0152 11.4705C13.2852 11.4405 13.5552 11.4305 13.8352 11.4305C15.1752 11.4305 16.4352 11.7005 17.3952 12.2505C18.3752 12.8105 19.0852 13.7205 19.0852 14.9305C19.0852 15.6305 18.8052 16.2305 18.3052 16.6405C17.8252 17.0305 17.2052 17.1805 16.5852 17.1805H13.5852C13.3863 17.1805 13.1955 17.1015 13.0548 16.9609C12.9142 16.8202 12.8352 16.6295 12.8352 16.4305C12.8352 16.2316 12.9142 16.0409 13.0548 15.9002C13.1955 15.7596 13.3863 15.6805 13.5852 15.6805H16.5852C16.9752 15.6805 17.2252 15.5805 17.3652 15.4705C17.4852 15.3705 17.5852 15.2205 17.5852 14.9305C17.5852 14.3905 17.2952 13.9305 16.6452 13.5505C15.7759 13.1099 14.8092 12.8966 13.8352 12.9305Z" fill="#71AAEB"/>
</g>
</g>
</svg>
