<svg width="21" height="21" viewBox="0 0 21 21" fill="none" xmlns="http://www.w3.org/2000/svg">
<g id="Nav &#226;&#134;&#146; Ordered List &#226;&#134;&#146; Item &#226;&#134;&#146; Link &#226;&#134;&#146; SVG" clip-path="url(#clip0_1_2418)">
<g id="message_outline_20__Page-2">
<g id="message_outline_20__message_outline_20">
<path id="message_outline_20__Icon-Color" d="M6.91518 16.4305C7.11518 16.2005 7.44518 16.1205 7.73518 16.2305C8.54518 16.5305 9.43518 16.6805 10.3352 16.6805C14.1052 16.6805 17.0852 13.9805 17.0852 10.6805C17.0852 7.38054 14.1052 4.68054 10.3352 4.68054C6.56518 4.68054 3.58518 7.38054 3.58518 10.6805C3.58518 11.8905 3.98518 13.0505 4.72518 14.0305C4.82518 14.1705 4.88518 14.3405 4.87518 14.5205C4.83518 15.2805 4.47518 16.3005 3.79518 17.6505C5.27518 17.5405 6.29518 17.1205 6.91518 16.4305ZM3.32518 19.1805C3.11375 19.1884 2.904 19.1402 2.7172 19.0408C2.5304 18.9415 2.37319 18.7945 2.26151 18.6148C2.14983 18.4351 2.08764 18.229 2.08126 18.0175C2.07489 17.8061 2.12454 17.5967 2.22518 17.4105C2.722 16.5562 3.09887 15.6376 3.34518 14.6805C2.52626 13.5073 2.08652 12.1113 2.08518 10.6805C2.08518 6.51054 5.76518 3.18054 10.3352 3.18054C14.9052 3.18054 18.5852 6.51054 18.5852 10.6805C18.5852 14.8505 14.9052 18.1805 10.3352 18.1805C9.41518 18.1805 8.52518 18.0505 7.67518 17.7805C6.67518 18.6705 5.21518 19.1205 3.32518 19.1805Z" fill="#71AAEB"/>
</g>
</g>
</g>
<defs>
<clipPath id="clip0_1_2418">
<rect width="20" height="20" fill="white" transform="translate(0.0851746 0.680542)"/>
</clipPath>
</defs>
</svg>
