<svg width="21" height="21" viewBox="0 0 21 21" fill="none" xmlns="http://www.w3.org/2000/svg">
<g id="Nav &#226;&#134;&#146; Ordered List &#226;&#134;&#146; Item &#226;&#134;&#146; Link &#226;&#134;&#146; SVG">
<path id="Vector" fill-rule="evenodd" clip-rule="evenodd" d="M11.9252 2.68054H8.24517C7.31517 2.68054 6.57517 2.68054 5.98517 2.73054C5.36517 2.78054 4.83517 2.88054 4.35517 3.13054C3.57095 3.52899 2.93363 4.16632 2.53517 4.95054C2.29507 5.46197 2.1591 6.01606 2.13517 6.58054C2.08517 7.18054 2.08517 7.91054 2.08517 8.84054V12.5205C2.08517 13.4505 2.08517 14.1905 2.13517 14.7805C2.18517 15.4005 2.28517 15.9305 2.53517 16.4105C2.93517 17.1905 3.57517 17.8305 4.35517 18.2305C4.83517 18.4805 5.36517 18.5805 5.98517 18.6305C6.58517 18.6805 7.31517 18.6805 8.24517 18.6805H11.9252C12.8552 18.6805 13.5952 18.6805 14.1852 18.6305C14.7497 18.6066 15.3037 18.4706 15.8152 18.2305C16.5994 17.8321 17.2367 17.1948 17.6352 16.4105C17.8852 15.9305 17.9852 15.4005 18.0352 14.7805C18.0852 14.1805 18.0852 13.4505 18.0852 12.5205V8.84054C18.0852 7.91054 18.0852 7.17054 18.0352 6.58054C18.0113 6.01606 17.8753 5.46197 17.6352 4.95054C17.2367 4.16632 16.5994 3.52899 15.8152 3.13054C15.3037 2.89044 14.7497 2.75447 14.1852 2.73054C13.5852 2.68054 12.8552 2.68054 11.9252 2.68054ZM5.02517 4.47054C5.27517 4.35054 5.58517 4.27054 6.10517 4.22054C6.63517 4.18054 7.30517 4.18054 8.27517 4.18054H11.8952C12.8552 4.18054 13.5352 4.18054 14.0652 4.22054C14.5852 4.27054 14.8952 4.35054 15.1352 4.47054C15.6352 4.72054 16.0352 5.13054 16.2952 5.63054C16.4152 5.87054 16.4952 6.18054 16.5452 6.70054L16.5652 7.18054H3.60517L3.62517 6.70054C3.67517 6.18054 3.75517 5.87054 3.87517 5.63054C4.12517 5.13054 4.53517 4.73054 5.03517 4.47054H5.02517ZM3.58517 8.68054V12.4905C3.58517 13.4505 3.58517 14.1305 3.62517 14.6605C3.67517 15.1805 3.75517 15.4905 3.87517 15.7305C4.12517 16.2305 4.53517 16.6305 5.03517 16.8905C5.27517 17.0105 5.58517 17.0905 6.10517 17.1405C6.63517 17.1805 7.30517 17.1805 8.27517 17.1805H11.8952C12.8552 17.1805 13.5352 17.1805 14.0652 17.1405C14.4349 17.1287 14.7985 17.0437 15.1352 16.8905C15.6352 16.6405 16.0352 16.2305 16.2952 15.7305C16.4152 15.4905 16.4952 15.1805 16.5452 14.6605C16.5852 14.1305 16.5852 13.4605 16.5852 12.4905V8.68054H3.58517Z" fill="#71AAEB"/>
</g>
</svg>
