<svg width="21" height="21" viewBox="0 0 21 21" fill="none" xmlns="http://www.w3.org/2000/svg">
<g id="Nav &#226;&#134;&#146; Ordered List &#226;&#134;&#146; Item &#226;&#134;&#146; Link &#226;&#134;&#146; SVG">
<path id="Vector" fill-rule="evenodd" clip-rule="evenodd" d="M6.92517 17.1205C7.68517 17.1805 8.66517 17.1805 10.0852 17.1805C11.5052 17.1805 12.4852 17.1805 13.2452 17.1205C13.7382 17.109 14.2242 17.0002 14.6752 16.8005C15.334 16.4649 15.8696 15.9293 16.2052 15.2705C16.3552 14.9805 16.4652 14.5805 16.5252 13.8405L16.5552 13.2105L15.2552 11.9105C14.9552 11.6105 14.7552 11.4105 14.5852 11.2705C14.5074 11.194 14.4158 11.1329 14.3152 11.0905C14.1656 11.0424 14.0047 11.0424 13.8552 11.0905C13.7546 11.1329 13.6629 11.194 13.5852 11.2705C13.4252 11.4005 13.2252 11.6005 12.9152 11.9105L10.6152 14.2105C10.4745 14.351 10.2839 14.4299 10.0852 14.4299C9.88642 14.4299 9.6958 14.351 9.55517 14.2105L9.25517 13.9105C8.95517 13.6105 8.75517 13.4105 8.58517 13.2705C8.50741 13.194 8.41578 13.1329 8.31517 13.0905C8.16563 13.0424 8.00472 13.0424 7.85517 13.0905C7.75457 13.1329 7.66294 13.194 7.58517 13.2705C7.42517 13.4005 7.22517 13.6005 6.91517 13.9105L4.64517 16.1805C4.89517 16.4205 5.17517 16.6305 5.49517 16.7805C5.78517 16.9405 6.18517 17.0505 6.92517 17.1105V17.1205ZM16.3152 10.8505L16.5852 11.1205V10.6805C16.5852 9.26054 16.5852 8.28054 16.5252 7.52054C16.5136 7.02747 16.4048 6.54153 16.2052 6.09054C15.8696 5.43174 15.334 4.89614 14.6752 4.56054C14.2242 4.36087 13.7382 4.25213 13.2452 4.24054C12.1929 4.182 11.1389 4.16199 10.0852 4.18054C8.66517 4.18054 7.68517 4.18054 6.92517 4.24054C6.18517 4.30054 5.78517 4.41054 5.49517 4.56054C4.83637 4.89614 4.30077 5.43174 3.96517 6.09054C3.81517 6.38054 3.70517 6.78054 3.64517 7.52054C3.58664 8.57279 3.56662 9.62683 3.58517 10.6805C3.58517 12.1005 3.58517 13.0805 3.64517 13.8405C3.68517 14.3105 3.74517 14.6405 3.81517 14.8905L5.85517 12.8505L5.87517 12.8305C6.15517 12.5505 6.39517 12.3105 6.61517 12.1305C6.84517 11.9305 7.08517 11.7605 7.38517 11.6605C7.84517 11.5105 8.32517 11.5105 8.78517 11.6605C9.08517 11.7605 9.32517 11.9305 9.55517 12.1205C9.71517 12.2605 9.89517 12.4205 10.0852 12.6205L11.8552 10.8505L11.8752 10.8305C12.1552 10.5505 12.3952 10.3105 12.6152 10.1305C12.8452 9.93054 13.0852 9.76054 13.3852 9.66054C13.8452 9.51054 14.3252 9.51054 14.7852 9.66054C15.0852 9.76054 15.3252 9.93054 15.5552 10.1205C15.7752 10.3105 16.0152 10.5505 16.2952 10.8205L16.3152 10.8505ZM2.62517 5.41054C2.08517 6.48054 2.08517 7.88054 2.08517 10.6805C2.08517 13.4805 2.08517 14.8805 2.62517 15.9505C3.10499 16.8939 3.87179 17.6607 4.81517 18.1405C5.88517 18.6805 7.28517 18.6805 10.0852 18.6805C12.8852 18.6805 14.2852 18.6805 15.3552 18.1405C16.2986 17.6607 17.0654 16.8939 17.5452 15.9505C18.0852 14.8805 18.0852 13.4805 18.0852 10.6805C18.0852 7.88054 18.0852 6.48054 17.5352 5.41054C17.058 4.46868 16.2948 3.70205 15.3552 3.22054C14.2852 2.68054 12.8852 2.68054 10.0852 2.68054C7.28517 2.68054 5.88517 2.68054 4.81517 3.22054C3.87179 3.70035 3.10499 4.46715 2.62517 5.41054ZM7.33517 6.68054C7.00365 6.68054 6.68571 6.81224 6.45129 7.04666C6.21687 7.28108 6.08517 7.59902 6.08517 7.93054C6.08517 8.26206 6.21687 8.58001 6.45129 8.81443C6.68571 9.04885 7.00365 9.18054 7.33517 9.18054C7.6667 9.18054 7.98464 9.04885 8.21906 8.81443C8.45348 8.58001 8.58517 8.26206 8.58517 7.93054C8.58517 7.59902 8.45348 7.28108 8.21906 7.04666C7.98464 6.81224 7.6667 6.68054 7.33517 6.68054Z" fill="#71AAEB"/>
</g>
</svg>
