<svg width="21" height="21" viewBox="0 0 21 21" fill="none" xmlns="http://www.w3.org/2000/svg">
<g id="Nav &#226;&#134;&#146; Ordered List &#226;&#134;&#146; Item &#226;&#134;&#146; Link &#226;&#134;&#146; SVG">
<path id="Vector" fill-rule="evenodd" clip-rule="evenodd" d="M5.92517 16.3105C7.12767 17.205 8.58647 17.6881 10.0852 17.6881C11.5839 17.6881 13.0427 17.205 14.2452 16.3105C12.9845 15.5684 11.5481 15.177 10.0852 15.177C8.62222 15.177 7.18589 15.5684 5.92517 16.3105ZM4.78517 15.2505C3.90939 14.2355 3.34352 12.9902 3.15484 11.6629C2.96617 10.3356 3.16262 8.98203 3.72085 7.76311C4.27908 6.5442 5.1756 5.51122 6.30383 4.78701C7.43205 4.06279 8.74451 3.6778 10.0852 3.6778C11.4258 3.6778 12.7383 4.06279 13.8665 4.78701C14.9947 5.51122 15.8913 6.5442 16.4495 7.76311C17.0077 8.98203 17.2042 10.3356 17.0155 11.6629C16.8268 12.9902 16.261 14.2355 15.3852 15.2505C13.8088 14.2222 11.9673 13.6746 10.0852 13.6746C8.20303 13.6746 6.36153 14.2222 4.78517 15.2505ZM10.0852 2.18054C8.96894 2.18054 7.86363 2.4004 6.83237 2.82757C5.8011 3.25473 4.86407 3.88084 4.07477 4.67013C3.28547 5.45943 2.65936 6.39647 2.2322 7.42773C1.80503 8.459 1.58517 9.56431 1.58517 10.6805C1.58517 11.7968 1.80503 12.9021 2.2322 13.9334C2.65936 14.9646 3.28547 15.9017 4.07477 16.691C4.86407 17.4802 5.8011 18.1064 6.83237 18.5335C7.86363 18.9607 8.96894 19.1805 10.0852 19.1805C12.3395 19.1805 14.5015 18.285 16.0956 16.691C17.6896 15.0969 18.5852 12.9349 18.5852 10.6805C18.5852 8.4262 17.6896 6.26419 16.0956 4.67013C14.5015 3.07608 12.3395 2.18054 10.0852 2.18054ZM8.58517 9.18054C8.58517 9.57837 8.74321 9.9599 9.02451 10.2412C9.30582 10.5225 9.68735 10.6805 10.0852 10.6805C10.483 10.6805 10.8645 10.5225 11.1458 10.2412C11.4271 9.9599 11.5852 9.57837 11.5852 9.18054C11.5852 8.78272 11.4271 8.40119 11.1458 8.11988C10.8645 7.83858 10.483 7.68054 10.0852 7.68054C9.68735 7.68054 9.30582 7.83858 9.02451 8.11988C8.74321 8.40119 8.58517 8.78272 8.58517 9.18054ZM10.0852 6.18054C9.69121 6.18054 9.3011 6.25814 8.93712 6.4089C8.57315 6.55967 8.24243 6.78065 7.96385 7.05922C7.68528 7.3378 7.4643 7.66851 7.31354 8.03249C7.16277 8.39647 7.08517 8.78658 7.08517 9.18054C7.08517 9.57451 7.16277 9.96462 7.31354 10.3286C7.4643 10.6926 7.68528 11.0233 7.96385 11.3019C8.24243 11.5804 8.57315 11.8014 8.93712 11.9522C9.3011 12.1029 9.69121 12.1805 10.0852 12.1805C10.8808 12.1805 11.6439 11.8645 12.2065 11.3019C12.7691 10.7393 13.0852 9.97619 13.0852 9.18054C13.0852 8.38489 12.7691 7.62183 12.2065 7.05922C11.6439 6.49661 10.8808 6.18054 10.0852 6.18054Z" fill="#71AAEB"/>
</g>
</svg>
