<svg width="25" height="25" viewBox="0 0 25 25" fill="none" xmlns="http://www.w3.org/2000/svg">
<g id="SVG" clip-path="url(#clip0_1_2398)">
<g id="Group">
<path id="Vector" d="M19.6252 8.63059C19.6253 8.25629 19.5517 7.88562 19.4085 7.53979C19.2654 7.19395 19.0554 6.87972 18.7908 6.61504C18.5261 6.35037 18.2118 6.14045 17.866 5.99727C17.5202 5.85409 17.1495 5.78046 16.7752 5.78059C16.4009 5.78046 16.0302 5.85409 15.6844 5.99727C15.3386 6.14045 15.0243 6.35037 14.7597 6.61504C14.495 6.87972 14.2851 7.19395 14.1419 7.53979C13.9987 7.88562 13.9251 8.25629 13.9252 8.63059C13.9251 9.0049 13.9987 9.37556 14.1419 9.72139C14.2851 10.0672 14.495 10.3815 14.7597 10.6461C15.0243 10.9108 15.3386 11.1207 15.6844 11.2639C16.0302 11.4071 16.4009 11.4807 16.7752 11.4806C17.1495 11.4807 17.5202 11.4071 17.866 11.2639C18.2118 11.1207 18.5261 10.9108 18.7908 10.6461C19.0554 10.3815 19.2654 10.0672 19.4085 9.72139C19.5517 9.37556 19.6253 9.0049 19.6252 8.63059ZM21.4252 8.63059C21.4253 9.24127 21.3052 9.846 21.0715 10.4102C20.8379 10.9744 20.4954 11.4871 20.0635 11.9189C19.6317 12.3507 19.1191 12.6933 18.5548 12.9269C17.9906 13.1605 17.3859 13.2807 16.7752 13.2806C16.1645 13.2807 15.5598 13.1605 14.9956 12.9269C14.4314 12.6933 13.9187 12.3507 13.4869 11.9189C13.055 11.4871 12.7125 10.9744 12.4789 10.4102C12.2453 9.846 12.1251 9.24127 12.1252 8.63059C12.1251 8.01991 12.2453 7.41518 12.4789 6.85096C12.7125 6.28673 13.055 5.77407 13.4869 5.34225C13.9187 4.91043 14.4314 4.56792 14.9956 4.33428C15.5598 4.10065 16.1645 3.98046 16.7752 3.98059C17.3859 3.98046 17.9906 4.10065 18.5548 4.33428C19.1191 4.56792 19.6317 4.91043 20.0635 5.34225C20.4954 5.77407 20.8379 6.28673 21.0715 6.85096C21.3052 7.41518 21.4253 8.01991 21.4252 8.63059ZM10.6752 19.1096C10.6752 19.8776 10.5852 19.7806 11.0102 19.7806H22.5402C22.9662 19.7806 22.8752 19.8776 22.8752 19.1096C22.8752 17.2166 20.0972 16.0806 16.7752 16.0806C13.4532 16.0806 10.6752 17.2166 10.6752 19.1096ZM6.67521 10.7806H9.37521C9.4934 10.7806 9.61043 10.8039 9.71962 10.8491C9.82882 10.8943 9.92803 10.9606 10.0116 11.0442C10.0952 11.1278 10.1615 11.227 10.2067 11.3362C10.2519 11.4454 10.2752 11.5624 10.2752 11.6806C10.2752 11.7988 10.2519 11.9158 10.2067 12.025C10.1615 12.1342 10.0952 12.2334 10.0116 12.317C9.92803 12.4006 9.82882 12.4669 9.71962 12.5121C9.61043 12.5573 9.4934 12.5806 9.37521 12.5806H6.67521V15.2806C6.67521 15.5193 6.58039 15.7482 6.4116 15.917C6.24282 16.0858 6.0139 16.1806 5.77521 16.1806C5.53651 16.1806 5.30759 16.0858 5.13881 15.917C4.97003 15.7482 4.87521 15.5193 4.87521 15.2806V12.5806H2.17521C2.05702 12.5806 1.93999 12.5573 1.83079 12.5121C1.7216 12.4669 1.62238 12.4006 1.53881 12.317C1.45524 12.2334 1.38895 12.1342 1.34372 12.025C1.29849 11.9158 1.27521 11.7988 1.27521 11.6806C1.27521 11.5624 1.29849 11.4454 1.34372 11.3362C1.38895 11.227 1.45524 11.1278 1.53881 11.0442C1.62238 10.9606 1.7216 10.8943 1.83079 10.8491C1.93999 10.8039 2.05702 10.7806 2.17521 10.7806H4.87521V8.08059C4.87521 7.8419 4.97003 7.61298 5.13881 7.44419C5.30759 7.27541 5.53651 7.18059 5.77521 7.18059C6.0139 7.18059 6.24282 7.27541 6.4116 7.44419C6.58039 7.61298 6.67521 7.8419 6.67521 8.08059V10.7806ZM8.87521 19.1096C8.87521 15.7826 12.5482 14.2806 16.7752 14.2806C21.0022 14.2806 24.6752 15.7826 24.6752 19.1096C24.6752 20.8446 23.9892 21.5806 22.5402 21.5806H11.0102C9.56021 21.5806 8.87521 20.8446 8.87521 19.1096Z" fill="#E1E3E6"/>
</g>
</g>
<defs>
<clipPath id="clip0_1_2398">
<rect width="24" height="24" fill="white" transform="translate(0.775208 0.680542)"/>
</clipPath>
</defs>
</svg>
