<svg width="29" height="29" viewBox="0 0 29 29" fill="none" xmlns="http://www.w3.org/2000/svg">
<g id="SVG">
<path id="Vector" fill-rule="evenodd" clip-rule="evenodd" d="M14.0852 2.68054C8.53117 2.68054 4.08517 7.16054 4.08517 12.6805C4.08517 15.5305 5.07117 17.3735 6.25017 18.8085C6.70017 19.3585 7.19017 19.8585 7.62917 20.3075L7.95117 20.6375C8.44317 21.1475 8.84817 21.5995 9.15317 22.0745L9.66017 24.1045L9.69217 24.2325C9.82017 24.7505 9.94917 25.2695 10.2552 25.6785C10.5216 26.0346 10.8782 26.3132 11.2882 26.4855C11.7592 26.6835 12.2942 26.6825 12.8282 26.6805H15.3422C15.8762 26.6825 16.4112 26.6835 16.8822 26.4855C17.2922 26.3132 17.6487 26.0346 17.9152 25.6785C18.2222 25.2695 18.3502 24.7505 18.4782 24.2325L18.5102 24.1055L19.0172 22.0745C19.3222 21.5995 19.7272 21.1475 20.2192 20.6385C20.3222 20.5315 20.4292 20.4205 20.5412 20.3075C20.9812 19.8575 21.4692 19.3575 21.9212 18.8085C23.0982 17.3735 24.0852 15.5305 24.0852 12.6805C24.0852 7.12854 19.6372 2.68054 14.0852 2.68054ZM6.08517 12.6805C6.08517 8.26054 9.63917 4.68054 14.0852 4.68054C18.5332 4.68054 22.0852 8.23254 22.0852 12.6805C22.0852 14.9805 21.3212 16.3875 20.3752 17.5405C19.9852 18.0145 19.5732 18.4355 19.1412 18.8775C19.0222 18.9995 18.9012 19.1225 18.7802 19.2495C18.3602 19.6845 17.9252 20.1545 17.5472 20.6805H15.0852V18.1805L16.6852 16.9805C16.8973 16.8214 17.0376 16.5845 17.0751 16.322C17.1126 16.0594 17.0443 15.7927 16.8852 15.5805C16.726 15.3684 16.4891 15.2281 16.2266 15.1906C15.964 15.1531 15.6973 15.2214 15.4852 15.3805L14.0852 16.4305L12.6852 15.3805C12.473 15.2214 12.2063 15.1531 11.9438 15.1906C11.6812 15.2281 11.4443 15.3684 11.2852 15.5805C11.126 15.7927 11.0577 16.0594 11.0952 16.322C11.1327 16.5845 11.273 16.8214 11.4852 16.9805L13.0852 18.1805V20.6805H10.6222C10.2452 20.1545 9.81117 19.6845 9.39117 19.2495L9.02917 18.8775C8.59846 18.4498 8.18673 18.0034 7.79517 17.5395C6.84917 16.3875 6.08517 14.9805 6.08517 12.6805ZM11.3652 22.6805L11.6012 23.6205C11.7862 24.3605 11.8252 24.4385 11.8562 24.4805C11.9093 24.5515 11.9804 24.6071 12.0622 24.6415C12.1102 24.6615 12.1962 24.6805 12.9592 24.6805H15.2112C15.9742 24.6805 16.0602 24.6605 16.1082 24.6415C16.1899 24.6071 16.261 24.5515 16.3142 24.4805C16.3452 24.4385 16.3842 24.3605 16.5692 23.6205L16.8042 22.6805H11.3652Z" fill="black"/>
</g>
</svg>
