<svg width="25" height="25" viewBox="0 0 25 25" fill="none" xmlns="http://www.w3.org/2000/svg">
<g id="Button - &#208;&#161;&#208;&#186;&#209;&#128;&#209;&#139;&#209;&#130;&#209;&#140; &#226;&#134;&#146; SVG" clip-path="url(#clip0_1_2267)">
<g id="Group">
<path id="Vector" opacity="0.12" d="M12.0852 24.6805C18.7122 24.6805 24.0852 19.3075 24.0852 12.6805C24.0852 6.05354 18.7122 0.680542 12.0852 0.680542C5.45821 0.680542 0.0852051 6.05354 0.0852051 12.6805C0.0852051 19.3075 5.45821 24.6805 12.0852 24.6805Z" fill="#B2B2B2"/>
<path id="Vector_2" d="M16.8212 7.94448C16.9897 8.11323 17.0844 8.34198 17.0844 8.58048C17.0844 8.81898 16.9897 9.04773 16.8212 9.21648L13.3582 12.6805L16.8212 16.1445C16.9749 16.2982 17.0679 16.5024 17.0827 16.7193C17.0976 16.9362 17.0335 17.1512 16.9022 17.3245L16.8222 17.4165C16.7386 17.5001 16.6394 17.5664 16.5302 17.6117C16.421 17.6569 16.3039 17.6802 16.1857 17.6802C16.0675 17.6802 15.9504 17.6569 15.8412 17.6117C15.732 17.5664 15.6328 17.5001 15.5492 17.4165L12.0852 13.9535L8.62119 17.4165C8.5388 17.5049 8.43944 17.5758 8.32904 17.625C8.21864 17.6742 8.09946 17.7007 7.97862 17.7028C7.85778 17.7049 7.73774 17.6827 7.62568 17.6374C7.51361 17.5922 7.41181 17.5248 7.32635 17.4393C7.24089 17.3539 7.17351 17.2521 7.12825 17.14C7.08298 17.0279 7.06075 16.9079 7.06288 16.7871C7.06502 16.6662 7.09147 16.547 7.14066 16.4366C7.18985 16.3262 7.26077 16.2269 7.34919 16.1445L10.8122 12.6805L7.34919 9.21648C7.19559 9.06263 7.10286 8.85838 7.08816 8.64147C7.07345 8.42456 7.13776 8.20966 7.26919 8.03648L7.34919 7.94448C7.51794 7.77594 7.74669 7.68127 7.98519 7.68127C8.22369 7.68127 8.45244 7.77594 8.62119 7.94448L12.0852 11.4075L15.5492 7.94448C15.7179 7.77594 15.9467 7.68127 16.1852 7.68127C16.4237 7.68127 16.6524 7.77594 16.8212 7.94448Z" fill="#B2B2B2"/>
</g>
</g>
<defs>
<clipPath id="clip0_1_2267">
<rect width="24" height="24" fill="white" transform="translate(0.0852051 0.680542)"/>
</clipPath>
</defs>
</svg>
