<svg width="25" height="25" viewBox="0 0 25 25" fill="none" xmlns="http://www.w3.org/2000/svg">
<g id="SVG" clip-path="url(#clip0_1_201)">
<g id="Group">
<path id="Vector" d="M17.263 4.49837H7.46704C6.31752 4.49837 5.73776 4.60833 5.11802 4.93819C4.55826 5.23807 4.11844 5.68788 3.80857 6.24765C3.47871 6.86739 3.36875 7.44715 3.36875 8.59667V14.3942C3.36875 15.5438 3.47871 16.1235 3.80857 16.7433C4.10844 17.303 4.55826 17.7429 5.11802 18.0527L5.26796 18.1227C5.77775 18.3726 6.30753 18.4725 7.21715 18.4925H7.46704V20.7016C7.46704 21.1414 7.63697 21.5513 7.93685 21.8611L8.0568 21.9611C8.69653 22.5109 9.65613 22.4809 10.2659 21.8811L13.7344 18.4925H17.263C18.4125 18.4925 18.9922 18.3826 19.612 18.0527C20.1717 17.7528 20.6116 17.303 20.9214 16.7433C21.2513 16.1235 21.3613 15.5438 21.3613 14.3942V8.59667C21.3613 7.44715 21.2513 6.86739 20.9214 6.24765C20.6251 5.69051 20.1691 5.23455 19.612 4.93819C18.8828 4.58293 18.0713 4.43099 17.263 4.49837ZM7.26713 6.29762H17.253C18.1326 6.29762 18.4325 6.3576 18.7523 6.52753C19.0022 6.65747 19.1922 6.8474 19.3221 7.09729C19.492 7.41716 19.552 7.71703 19.552 8.59667V14.7541C19.532 15.3638 19.462 15.6237 19.3221 15.8936C19.1922 16.1435 19.0022 16.3334 18.7523 16.4634C18.4325 16.6333 18.1326 16.6933 17.253 16.6933H13.2346C13.041 16.7221 12.862 16.8134 12.7249 16.9532L9.2563 20.3518V17.5929C9.2563 17.0931 8.85646 16.6933 8.35667 16.6933H7.10719C6.71393 16.7155 6.32154 16.6364 5.96767 16.4634C5.72491 16.3349 5.52639 16.1364 5.39791 15.8936C5.22798 15.5738 5.168 15.2739 5.168 14.3942V8.23682C5.18799 7.62707 5.25796 7.36718 5.39791 7.09729C5.52785 6.8474 5.71777 6.65747 5.96767 6.52753C6.26754 6.3676 6.54743 6.30762 7.27712 6.29762H7.26713Z" fill="#B2B2B2"/>
</g>
</g>
<defs>
<clipPath id="clip0_1_201">
<rect width="23.99" height="23.99" fill="white" transform="translate(0.370003 0.5)"/>
</clipPath>
</defs>
</svg>
