<svg width="24" height="25" viewBox="0 0 24 25" fill="none" xmlns="http://www.w3.org/2000/svg">
<g id="8 &#226;&#134;&#146; SVG" clip-path="url(#clip0_1_194)">
<g id="Group">
<path id="Vector" d="M16.0033 4.49829C14.5424 4.56734 13.158 5.17231 12.115 6.19758L11.995 6.30754L11.8751 6.19758C10.7687 5.11508 9.28457 4.50564 7.73678 4.49829C6.21945 4.49829 4.76412 5.10036 3.69027 6.17233C2.61642 7.24431 2.01181 8.69858 2.00916 10.2159C2.00916 13.2946 3.13869 14.764 8.18659 18.7524L10.8755 20.8515C11.5352 21.3713 12.4748 21.3713 13.1345 20.8515L15.4935 19.0122L16.4332 18.2726C20.9613 14.6341 22.0008 13.1747 22.0008 10.2159C21.9982 8.69858 21.3936 7.24431 20.3197 6.17233C19.2459 5.10036 17.7905 4.49829 16.2732 4.49829H16.0033ZM16.2732 6.29754C17.3134 6.29754 18.311 6.71005 19.0475 7.4446C19.7839 8.17915 20.1989 9.17577 20.2016 10.2159V10.5158C20.1216 12.6649 19.132 13.8444 14.6939 17.3529L12.025 19.4321C12.0189 19.4356 12.012 19.4374 12.005 19.4374C11.998 19.4374 11.9911 19.4356 11.985 19.4321L9.606 17.5928L8.73636 16.8931C4.60808 13.5945 3.80841 12.475 3.80841 10.2259C3.80841 9.18404 4.22229 8.18484 4.959 7.44813C5.69571 6.71142 6.69491 6.29754 7.73678 6.29754C9.07622 6.29754 10.2457 6.91728 11.3053 8.21674C11.3904 8.3205 11.4976 8.40391 11.619 8.46087C11.7405 8.51783 11.8732 8.54689 12.0074 8.54593C12.1416 8.54497 12.2738 8.51402 12.3945 8.45533C12.5151 8.39664 12.6211 8.3117 12.7047 8.20675C13.7443 6.90729 14.9038 6.29754 16.2732 6.29754Z" fill="#B2B2B2"/>
</g>
</g>
<defs>
<clipPath id="clip0_1_194">
<rect width="23.99" height="23.99" fill="white" transform="translate(0.00999451 0.5)"/>
</clipPath>
</defs>
</svg>
