<svg width="57" height="57" viewBox="0 0 57 57" fill="none" xmlns="http://www.w3.org/2000/svg">
<g id="SVG" clip-path="url(#clip0_1_2365)">
<g id="newsfeed_outline_56__Icons-56/newsfeed_outline_56">
<g id="newsfeed_outline_56__newsfeed_outline_56">
<path id="newsfeed_outline_56__Icon-Color" d="M20.4052 6.34058H35.1852C38.9152 6.37058 40.8652 6.71058 42.7552 7.64058L43.1752 7.85058C45.0752 8.86058 46.5652 10.3506 47.5752 12.2506C48.6152 14.2106 49.0252 16.1006 49.0752 19.8306L49.0852 20.6606V35.8406C49.0252 39.5706 48.6152 41.4606 47.5752 43.4206C46.5823 45.2948 45.0494 46.8276 43.1752 47.8206C41.2152 48.8606 39.3252 49.2706 35.5952 49.3206L34.7652 49.3306H19.5852C15.8552 49.2706 13.9652 48.8606 12.0052 47.8206C10.131 46.8276 8.59816 45.2948 7.60521 43.4206C6.56521 41.4606 6.15521 39.5706 6.10521 35.8406L6.08521 35.0206V20.2406C6.11521 16.5106 6.45521 14.5606 7.38521 12.6706L7.59521 12.2506C8.60521 10.3506 10.0952 8.86058 11.9952 7.85058C13.9552 6.81058 15.8452 6.40058 19.5752 6.35058L20.4052 6.34058ZM46.0852 21.2506C45.9249 21.3088 45.7558 21.3392 45.5852 21.3406H9.58521C9.41463 21.3392 9.24554 21.3088 9.08521 21.2506V35.7606C9.12521 39.0606 9.4452 40.5206 10.2452 42.0206C10.9575 43.3672 12.0586 44.4682 13.4052 45.1806C14.9052 45.9806 16.3552 46.3006 19.6652 46.3406H35.5052C38.8052 46.3006 40.2652 45.9806 41.7652 45.1806C43.1118 44.4682 44.2129 43.3672 44.9252 42.0206C45.7252 40.5206 46.0452 39.0706 46.0852 35.7606V35.0206V21.2506ZM34.7652 9.34058H19.6652C16.3652 9.38058 14.9052 9.70058 13.4052 10.5006C12.0586 11.2129 10.9575 12.314 10.2452 13.6606C9.5752 14.9106 9.24521 16.1306 9.13521 18.4106C9.27521 18.3606 9.4352 18.3406 9.58521 18.3406H45.5852C45.7452 18.3406 45.8852 18.3606 46.0352 18.4106C45.9252 16.1306 45.5952 14.9106 44.9352 13.6606C44.2202 12.3125 43.1155 11.2113 41.7652 10.5006C40.1652 9.64058 38.6052 9.34058 34.7652 9.34058Z" fill="#656565"/>
</g>
</g>
</g>
<defs>
<clipPath id="clip0_1_2365">
<rect width="56" height="56" fill="white" transform="translate(0.0852051 0.340576)"/>
</clipPath>
</defs>
</svg>
