<svg width="25" height="25" viewBox="0 0 25 25" fill="none" xmlns="http://www.w3.org/2000/svg">
<g id="Header &#226;&#134;&#146; List &#226;&#134;&#146; Item &#226;&#134;&#146; Link &#226;&#134;&#146; SVG" opacity="0.8">
<path id="Vector" d="M12.0852 2.78052C16.1052 2.78052 18.9852 6.06052 18.9852 10.3105V11.9105C18.9852 12.1405 19.1852 12.4405 19.7052 12.9905L19.9752 13.2605C21.0552 14.3605 21.4852 14.9905 21.4852 16.0105C21.4852 16.4505 21.4352 16.8005 21.2152 17.2105C20.7652 18.0905 19.7952 18.5805 18.3452 18.5805H16.4452C15.8052 20.9105 14.3052 22.1805 12.0852 22.1805C9.83518 22.1805 8.33518 20.8805 7.71518 18.5105L7.73518 18.5805H5.82518C4.32518 18.5805 3.35518 18.0805 2.92518 17.1705C2.72518 16.7705 2.68518 16.4505 2.68518 16.0105C2.68518 14.9905 3.11518 14.3605 4.19518 13.2605L4.46518 12.9905C4.99518 12.4405 5.18518 12.1405 5.18518 11.9105V10.3105C5.18518 6.06052 8.07518 2.78052 12.0852 2.78052ZM14.5552 18.5805H9.61518C10.0752 19.8305 10.8652 20.3805 12.0852 20.3805C13.3052 20.3805 14.0952 19.8305 14.5552 18.5805ZM12.0852 4.58052C9.12518 4.58052 6.98518 7.01052 6.98518 10.3105V11.9105C6.98518 12.7605 6.59518 13.3705 5.75518 14.2405L5.47518 14.5305C4.72518 15.2805 4.48518 15.6405 4.48518 16.0105C4.48518 16.2005 4.49518 16.3005 4.54518 16.3905C4.64518 16.6105 4.97518 16.7805 5.82518 16.7805H18.3452C19.1652 16.7805 19.5052 16.6105 19.6252 16.3805C19.6752 16.2805 19.6852 16.1805 19.6852 16.0105C19.6852 15.6405 19.4452 15.2805 18.6952 14.5305L18.4152 14.2405C17.5752 13.3705 17.1852 12.7605 17.1852 11.9105V10.3105C17.1852 7.01052 15.0552 4.58052 12.0852 4.58052Z" fill="#939393"/>
</g>
</svg>
