<svg width="13" height="9" viewBox="0 0 13 9" fill="none" xmlns="http://www.w3.org/2000/svg">
<g id="Header &#226;&#134;&#146; List &#226;&#134;&#146; Item &#226;&#134;&#146; Link - &#208;&#157;&#208;&#176;&#209;&#129;&#209;&#130;&#209;&#128;&#208;&#190;&#208;&#185;&#208;&#186;&#208;&#184; &#209;&#129;&#209;&#130;&#209;&#128;&#208;&#176;&#208;&#189;&#208;&#184;&#209;&#134;&#209;&#139; &#226;&#134;&#146; SVG">
<path id="Vector" fill-rule="evenodd" clip-rule="evenodd" d="M2.24516 2.90058C2.36599 2.74299 2.54438 2.63976 2.74122 2.61351C2.93805 2.58727 3.13726 2.64016 3.29516 2.76058L6.08516 4.90058L8.88516 2.75058C8.96194 2.67894 9.05291 2.62422 9.15218 2.58997C9.25145 2.55572 9.3568 2.54269 9.46142 2.55174C9.56604 2.56078 9.6676 2.5917 9.75951 2.64248C9.85143 2.69327 9.93165 2.76279 9.995 2.84654C10.0583 2.9303 10.1034 3.02642 10.1272 3.12869C10.1511 3.23096 10.1532 3.33709 10.1334 3.44023C10.1136 3.54336 10.0724 3.64118 10.0124 3.72738C9.95242 3.81357 9.875 3.8862 9.78516 3.94058L6.54516 6.44058C6.27516 6.64058 5.89516 6.64058 5.62516 6.44058L2.38516 3.95058C2.22911 3.82828 2.12783 3.64917 2.10346 3.45241C2.0791 3.25564 2.13364 3.05724 2.25516 2.90058H2.24516Z" fill="#656565"/>
</g>
</svg>
