<svg width="17" height="17" viewBox="0 0 17 17" fill="none" xmlns="http://www.w3.org/2000/svg">
<g id="SVG">
<path id="Vector" d="M6.58518 1.68054C7.60916 1.68029 8.61287 1.9659 9.48331 2.50522C10.3538 3.04454 11.0564 3.81614 11.512 4.73316C11.9676 5.65017 12.1583 6.67618 12.0623 7.69565C11.9664 8.71513 11.5878 9.68759 10.9692 10.5035L14.8642 14.4035C15.0007 14.5451 15.0762 14.7345 15.0744 14.9312C15.0726 15.1278 14.9937 15.3159 14.8546 15.4549C14.7154 15.5939 14.5273 15.6727 14.3306 15.6743C14.134 15.6759 13.9446 15.6002 13.8032 15.4635L9.90818 11.5635C9.21275 12.0907 8.40186 12.4448 7.54251 12.5967C6.68316 12.7485 5.80001 12.6936 4.96605 12.4367C4.13208 12.1797 3.37123 11.728 2.74636 11.1188C2.1215 10.5097 1.65055 9.76055 1.37243 8.9334C1.09431 8.10624 1.01701 7.22478 1.14691 6.36184C1.27681 5.49891 1.61018 4.67927 2.11948 3.97064C2.62878 3.26202 3.29939 2.68475 4.07589 2.28654C4.8524 1.88834 5.71252 1.68061 6.58518 1.68054ZM6.58518 3.18054C5.52431 3.18054 4.5069 3.60197 3.75675 4.35212C3.00661 5.10226 2.58518 6.11968 2.58518 7.18054C2.58518 8.24141 3.00661 9.25882 3.75675 10.009C4.5069 10.7591 5.52431 11.1805 6.58518 11.1805C7.64604 11.1805 8.66346 10.7591 9.41361 10.009C10.1638 9.25882 10.5852 8.24141 10.5852 7.18054C10.5852 6.11968 10.1638 5.10226 9.41361 4.35212C8.66346 3.60197 7.64604 3.18054 6.58518 3.18054Z" fill="#939393"/>
</g>
</svg>
